<?xml version="1.0" encoding="UTF-8"?>
<svg id="Capa_1" data-name="Capa 1" xmlns="http://www.w3.org/2000/svg" viewBox="0 0 384.2 79.64">
  <defs>
    <style>
      .cls-1 {
        font-family: JoyrideALT, Joyride;
        font-size: 11.94px;
      }

      .cls-1, .cls-2 {
        fill: #fff;
      }

      .cls-3 {
        letter-spacing: .2em;
      }

      .cls-4 {
        letter-spacing: .12em;
      }
    </style>
  </defs>
  <g>
    <polygon class="cls-2" points="240.46 0 240.46 52.83 223.88 52.83 223.88 13.55 181.77 52.83 162.35 52.83 219.03 0 240.46 0"/>
    <polygon class="cls-2" points="152.92 0 152.92 52.83 136.34 52.83 136.34 13.55 94.22 52.83 78.05 52.83 78.05 13.55 35.94 52.83 16.96 52.83 0 35.92 9.54 27.11 27.13 43.35 73.64 0 94.63 0 94.63 34.83 131.99 0 152.92 0"/>
    <polygon class="cls-2" points="323.73 0 342.76 0 286.06 52.83 267.12 52.83 250.12 35.92 259.66 27.11 277.24 43.35 323.73 0"/>
    <polygon class="cls-2" points="384.2 0 384.2 52.83 367.62 52.83 367.62 13.55 325.51 52.83 306.09 52.83 362.77 0 384.2 0"/>
  </g>
  <text class="cls-1" transform="translate(75.35 79.02)"><tspan class="cls-4" x="0" y="0">A</tspan><tspan class="cls-3" x="22.66" y="0">UTOMOTORES</tspan></text>
</svg>